# xmcd
#
# Track frame offsets:
#	150
#	11721
#	32328
#	44707
#	60194
#	72096
#	86005
#	100635
#	112434
#	123805
#
# Disc length: 1846 seconds
#
# Revision: 0
# Processed by: cddbd v1.5.2PL0 Copyright (c) Steve Scherf et al.
# Submitted via: EZCDAudioConverter 3.1.5.1
#
DISCID=7c07340a
DTITLE=The James Hunter Six - Hold On!
DYEAR=2016
DGENRE=
TTITLE0=If That Don't Tell You
TTITLE1=This Is Where We Come In
TTITLE2=(Baby) Hold On
TTITLE3=Something's Calling
TTITLE4=A Truer Heart
TTITLE5=Free Your Mind (While You Still Got Time)
TTITLE6=Light of My Life
TTITLE7=Stranded
TTITLE8=Satchel Foot
TTITLE9=In The Dark
EXTD=
EXTT0=
EXTT1=
EXTT2=
EXTT3=
EXTT4=
EXTT5=
EXTT6=
EXTT7=
EXTT8=
EXTT9=
PLAYORDER=
